<?xml version='1.0' encoding='utf-8'?>
<svg version='1.1' id='profile' xmlns='http://www.w3.org/2000/svg' xmlns:xlink='http://www.w3.org/1999/xlink' x='0px' y='0px' width='240px' height='240px' viewBox='0 0 240 240' enable-background='new 0 0 240 240' xml:space='preserve'>
<g id='tools'>
<linearGradient id="SVGID_1_" gradientUnits="userSpaceOnUse" x1="58.9681" y1="-642.0392" x2="64.9681" y2="-652.0392" gradientTransform="matrix(1 0 0 -1 0 -476)">
<stop offset="0" style="stop-color:#ABA176"/>
<stop offset="0.1564" style="stop-color:#FFF5B5"/>
<stop offset="0.2737" style="stop-color:#ABA176"/>
<stop offset="0.4804" style="stop-color:#FFF5B5"/>
<stop offset="0.6201" style="stop-color:#ABA176"/>
<stop offset="0.8101" style="stop-color:#CCC491"/>
</linearGradient>
<path fill="url(#SVGID_1_)" d="M64.1,170.7c-2.2,1.3-1.6,2.8,2.4,4.5c-1.8,0-5.6,1.2-5.6,1.2s-3-3.4-3.4-4.7c-0.6-2,4.4-2.4,1.3-4.2c-4-2.4-3.7-2.6-2.2-4.4c1.4-1.7,1-3-1.3-4.3c0.7,0,1.4,0,2.1,0c1,0,1.2,0.1,1.9,0.6c1.2,0.8,2,1.7,1.6,2.7c-0.3,0.8-0.6,1.6-0.3,2.6c0.5,1.6,1.1,1.7,1.8,2.5C63.3,168,66.2,169.5,64.1,170.7z"/>
<polygon fill="#D9C77B" points="57.2,166.3 52,164.5 60,137.3 65.6,137.8"/>
<path fill="#614D36" d="M57.2,166.3c0,0-0.4,1.2-0.2,3.7c0.3,0.1,0.6-0.1,0.6-0.1l9.1-30.2l-1.1-1.9L57.2,166.3z"/>
<polygon fill="#7E6246" points="60.6,152.4 59.1,157.6 55,156.5 56.5,151.7"/>
<polygon fill="#51392C" points="57.2,157.1 55,156.5 56.5,151.7"/>
<path fill="#8A6934" d="M52,164.5c-0.4,0.7-0.2,3.5,0,3.5l5,2.1c-0.2-2.5,0.2-3.7,0.2-3.7L52,164.5z"/>
<polygon fill="#ABA7A6" points="59.3,156.9 57.8,157.4 55.3,156.7 55.2,155.7 55.5,155.1 59.5,156.1"/>
<path fill="#8E8887" d="M59.3,156.9c0,0-0.2,0.8-0.7,0.9c-0.5,0.2-0.7-0.5-0.7-0.5L59.3,156.9z"/>
<path fill="#747474" d="M55.3,156.7c0,0-0.8,0.4-0.7,0.1c0.1-0.4,0.7-1,0.7-1V156.7z"/>
<polygon fill="#D9D7D6" points="58.3,157.9 54.6,156.8 55.3,156.7 57.8,157.4"/>
<path fill="#ABA7A6" d="M58.5,157.8c-0.1,0-0.2,0-0.3,0l0,0l-3.6-1l0,0l0,0l0,0c0,0,0,0,0-0.1c-0.5,0.2-0.9,0.5-1.2,0.8c-0.4,0.4,0.2,1.2,0.6,1.4s1.1,0.3,2.5,0.4c1.4,0.1,3-1.7,3-1.7s-0.2-0.1-0.5-0.1C58.8,157.7,58.7,157.8,58.5,157.8z"/>
<path fill="#484848" d="M56.4,159.3c-1.4-0.1-2.1-0.2-2.5-0.4c-0.3-0.1-0.7-0.6-0.7-1c0,0.7,0.8,1.5,1.1,1.7c0.4,0.2,0.7,0.3,2,0.3c1.4,0.1,2.6-1.2,2.6-1.2l0.4-1.1C59.5,157.7,57.8,159.4,56.4,159.3z M53.9,157.1c-0.3,0.2-0.5,0.3-0.6,0.6c0-0.1,0-0.1,0.1-0.1C53.5,157.4,53.7,157.3,53.9,157.1z M54.6,156.8L54.6,156.8L54.6,156.8L54.6,156.8z M53.3,157.8L53.3,157.8L53.3,157.8L53.3,157.8z"/>
<polygon fill="#797270" points="59.8,155.3 59.5,156.1 55.5,155.1 55.8,154.4"/>
<polygon fill="#484848" points="60.2,154 56.1,153.1 56.1,154.5 59.8,155.3"/>
<path fill="#545454" d="M185.2,113.9c-0.7-0.2-1.3-0.2-1.3,0l-3.1,11l2.4,0.6l2.2-7.8c0.5-0.3,0.7-0.6,0.8-0.7c0.1-0.2-0.2-0.4-0.4-0.5l0.5-1.9C186.4,114.3,185.9,114.1,185.2,113.9z"/>
<path fill="#6B6B6B" d="M183.2,125.5c0-0.2-0.5-0.5-1.1-0.7c-0.7-0.2-1.3-0.2-1.3,0s0.5,0.5,1.1,0.7C182.6,125.6,183.2,125.7,183.2,125.5z"/>
<path fill="#A8A799" d="M186.9,113.9c-0.3-0.1-0.6,0.4-0.7,1c-0.1,0.6,0,1.1,0.3,1.2l0.9,0.2l0.4-2.1L186.9,113.9z"/>
<rect x="184.387" y="111.066" transform="matrix(0.2292 -0.9734 0.9734 0.2292 34.2423 266.5737)" fill="#A8A471" width="2.1" height="1.2"/>
<polygon fill="#D4D0A0" points="184.2,112.5 184,113.5 184.9,113.4 186,113.8 186.2,112.9 185,112.5"/>
<polygon fill="#D4D0A0" points="185.4,109.8 185.1,110.1 185.1,110.5 186.3,110.7 186.5,110.5 186.5,110.1"/>
<path fill="#6E6C4A" d="M181.9,125.1c-0.3-0.1-0.6,0.1-0.6,0.1l-0.2,0.7l0.1,0.1l0.3,0.2l0.7,0.1l0.2-0.6C182.4,125.5,182.2,125.2,181.9,125.1z"/>
<polygon fill="#D4D0A0" points="180.3,128 180.2,128.1 180.2,128.3 181.4,128.7 181.5,128.5 181.5,128.3"/>
<polygon fill="#A8A471" points="180.4,128 180.6,127.4 181.6,127.6 181.4,128.3"/>
<polygon fill="#D4D0A0" points="180.6,127.4 180.6,126.8 180.7,126.7 181.8,127 181.9,127.2 181.6,127.6"/>
<polygon fill="#A8A471" points="180.8,126.8 181.1,125.8 182.1,126.1 181.7,127"/>
<path fill="#A8A471" d="M188.7,104.7c0,0-0.4,0.2-0.8,0.5c-0.2,0.1-0.4,0.3-0.6,0.4c-0.2,0.2-0.4,0.3-0.5,0.5c-0.2,0.3-0.3,0.6-0.5,1c-0.5,1.2-0.9,2.8-0.9,2.8l0.8,0.2l0,0c0,0,0-0.2,0.1-0.5c0.1-0.4,0.3-1.1,0.5-1.7s0.4-1.2,0.6-1.4c0,0,0.2-0.2,0.3-0.3c0.2-0.2,0.6-0.4,0.8-0.6c0.3-0.2,0.4-0.3,0.4-0.3L188.7,104.7z"/>
<path fill="#333333" d="M180.4,128.4c0,0-0.3,0.9-0.7,2.4c-1.3,4.5-4.1,13.9-5.5,17.5c-1.1,2.7-3.6,8.1-5.9,12.7c-1.1,2.3-2.2,4.5-3,6.1s-1.3,2.6-1.3,2.6l0.7,0.4c0,0,2-4,4.3-8.6c2.3-4.7,4.8-10,5.9-12.8c1-2.5,2.5-7.5,3.8-11.9c1.3-4.4,2.4-8.2,2.4-8.2L180.4,128.4L180.4,128.4z"/>
<polygon fill="#A8A471" points="184.9,113.4 184.3,113.4 184.3,113.8 185.7,114 185.8,113.6"/>
<linearGradient id="SVGID_2" gradientUnits="userSpaceOnUse" x1="193.2504" y1="-575.9006" x2="209.2504" y2="-563.9006" gradientTransform="matrix(1 0 0 -1 0 -476)">
<stop offset="0" style="stop-color:#BAF7FE"/>
<stop offset="0.4888" style="stop-color:#99C3D1"/>
<stop offset="1" style="stop-color:#FFB742"/>
</linearGradient>
<path fill="url(#SVGID_2)" d="M198.5,100.5c-0.4,0.4-0.9,0.7-1.3,1.1c-2.6,2-5,2.8-5.9,1.9s0-3.3,1.9-5.9c0.2-0.2,0.3-0.4,0.5-0.7c2.9-4.2,6.8-6.2,8.4-8.3c-0.6,0.6-2.7,4.5-3.3,5c2-2,3-3.9,6.2-5.5c0.3-0.1,0.5-0.2,0.8-0.4c0.8-0.4,1.9-2.2,2.3-3c0.1,1.2,0.9,2.8-0.8,4.5l0.6-0.6c-2.3,2.3-2.4,2.7-3.8,4.8c1-1.2,1-0.4,2.4-2.6C206.1,93.8,199,100.1,198.5,100.5z"/>
<path opacity="0.25" fill="#5D6665" enable-background="new" d="M192.2,101.3c0.2-0.6,0.7-1.7,1.8-3.1c0.2-0.2,0.3-0.4,0.5-0.6l0.1-0.1c0.9-1.4,8.7-5.7,8.7-5.7s-4.1,6.8-5.4,7.9c-0.4,0.4-0.9,0.7-1.3,1c-1.4,1.1-2.5,1.6-3.1,1.8l-2.1,0.8L192.2,101.3z"/>
<path opacity="0.25" fill="#5D6665" enable-background="new" d="M192,102.9c0.2-0.6,0.7-1.6,1.7-2.8c0.1-0.2,0.3-0.4,0.5-0.6l0.1-0.1c1.1-1.6,7.2-5.6,7.2-5.6s-3.3,4.6-5.4,6.5c-0.4,0.4-0.8,0.7-1.2,1C193.6,102.2,192.6,102.7,192,102.9z"/>
<path fill="#666244" d="M192,102.9c0.2,0.2,0.2,0.7,0.2,0.7l-2.8,1.9c0,0-0.3-0.2-0.5-0.5s-0.2-0.6-0.2-0.6l2.8-1.9C191.4,102.5,191.8,102.7,192,102.9z"/>
<path fill="#D4D3CC" d="M188,115.3c-0.1,0.6-0.4,1-0.7,1c-0.3-0.1-0.4-0.6-0.3-1.2c0.1-0.6,0.4-1,0.7-1C188,114.2,188.1,114.7,188,115.3z"/>
</g>
<g id="hk">
<path opacity="0.1" enable-background="new" d="M93,175.4c-11.2,0-20.3,2.1-20.3,4.6s9.1,4.6,20.3,4.6s20.3-2.1,20.3-4.6S104.2,175.4,93,175.4z M147,175.4c-11.2,0-20.3,2.1-20.3,4.6s9.1,4.6,20.3,4.6s20.3-2.1,20.3-4.6S158.2,175.4,147,175.4z"/>
<path fill="#333333" d="M184.9,118.9l-1.8,0.7l-0.2,1.8l0.3,0.6c0,0-0.2,0.6-0.2,0.7s-0.1,0.7-0.1,0.7l0.2,0.6l0.5,0.7l0.7-0.1l1-2.9l0.4-2.8L184.9,118.9L184.9,118.9z M182.4,117.9l2.2-0.2l-0.4-1.3l-2.5,0.1l-1.9,1.2l-2.7,4.4l-5.8,3.1l-2.7-2l-7.9-5.1l-0.4-0.3l-0.8-5.9l-1.2,0.3l-0.8-1.3l-0.6,0.1l0.3-0.3l2.4-5.6l4.7-3.2l1.3-5.1l2.6-11.1l-1.4-2.4l1.1-0.2l-1.9,0.2l-0.9-10.6l-8.5-6.6l-4.8-0.7l-2.6-0.9l-0.6-0.4l-0.8-0.1l-2.3-1.7l-8.7,2.4l-11.4,15.7l-0.2,0.8l2.7,10.6l-2.2,5.3l2.3,2.9l1.5-0.2l-1.5,3l1.7,5.5l3.7,4.5l2.3,1.3h-0.2l-2.3,2.1l-1.1,4.1l-7.8,11.7l-7.6,8.2l-2.7,0.5l-1.4,2.1l1.4,2.5l2.7,1.2l2.7-1.7l7.8-6.7l3.4-4.6l-1.4,16l0.7,11.2l0.2,1.1l6.8-0.6l2.4,18.1l0.3,0.3l4.6-0.2l0.3-0.1l1.3-17.6l1.2,0.2l0.7,7.5l0.7,11.4v0.5l5.6,0.6l0.5-0.6v-11.9l1.8-7.8l9,0.3l1.6-0.5v-1.2l-2.4-9.4l-1.2-9.9l-0.7-10l-0.2-1.1l4.4,1.7l3.9,1.5l2-0.8l3.6-1.4l4.1-5.2l0.5-1l1.6-5.6H182L182.4,117.9z M156.3,111.2l-0.6,0.1l-1,1.5l-0.4-0.5l-2.8,1.4l-2.8,2.5l-4.2,0.5l-0.5-0.1l-4.8-1.3l-1.4-0.6l-0.4-0.6l-0.8,0.1l-3.1-1.3l-2.8-10.4l-1.4-5.3l-0.1-2l1.8-0.9v-2.1l0.6-3.5l0.7-4.2l1.7-3.9l1.2-1l5.7,8.6l1,0.1l0.9-1l-1.4-1.8l4.6,2.4l-0.1-0.7l1.5-1.1l0.2-0.3l-0.1-0.1l1.7-1.7l0.1,0.3l4.4,6.6l4.9,4.1l-0.3,3.3l1.8,3.4L156.3,111.2z M147.4,93.1l5.2-1.1l0.4-0.6l-0.2-0.4l-0.6-0.4l-5.6,1.4l-0.4,0.6l0.5,0.7L147.4,93.1z M148.8,109l-1.1,0.3l-0.8,0.4l-3.1,0.4l-6.6-1.2h-0.4l0.1,0.5l-0.5,0.1l1.1,1.5l5.3,1l0.9-0.3l0,0l5.6-1.6l0.2-0.3v-0.4L148.8,109z M134.4,92.2l1-0.1l3.7,0.6l0.5-0.2l0.4-0.6h0.1H140l-0.7-0.6l-3.8-0.4h-1.7l-0.3,0.3l-0.2,0.4l0.5,0.6C133.8,92.2,134.4,92.2,134.4,92.2z M138.1,97.2l1-1.3l0,0l-0.2-0.3l-0.8-1.4l-1.7-0.3l-2.7,0.5l-1,0.5l-0.5,0.8l0.1,0.3l0.3,0.2h-0.1l0.2,0.2l3.7,1.4L138.1,97.2z M149.4,93.9l-1.9,0.4l-1.1,1.4l0.9,1.4l1.6,0.2l1.9-0.3l0.7-0.3l0.3-0.7v-0.3h0.3l0.9-0.4l0.2-0.3l-0.2-0.3L149.4,93.9z M139.3,106.2l0.8,1.3l0,0l3.4,0.5l1-0.2h1.3l1.4-0.8l-0.2-0.2l0.3-1l-1.2-2.5l-0.4,0.2l-0.3,0.1l-0.3,0.4l0.3,1.2l0.5,0.7l-0.2,0.3l-0.8,0.1l-1.4,0.1l-0.9,0.1l-0.3-0.2h-0.1l0,0l-1.9-0.1l0.4-0.8l0.2-1v-0.3l-0.3-0.1l-1.2,0.8L139.3,106.2z M74.2,86.4L74.2,86.4L74.2,86.4l0.2-0.1l0.1,0.2l0.1-0.4v0.3l0.1-0.2l0.2,0.2l0.1-0.1v-0.1l-0.1-0.1l0.2,0.1l3.2-1.5l2,0.3l1.5,1.2l0.6,0.9l0.9,0.6l0.2-0.1l0.2-0.3l0.2-0.4l-5.7-3.7L74,85.4l-0.4,0.3l0.3,0.3L74.2,86.4z M87.4,104.2l-0.4,0.4l-0.1,1.1l-0.1-0.8l-0.2-0.4h-0.4l-0.6,0.4l-0.3,0.6l0.1,0.8l0.3,0.9l0.7,0.4v-0.1l1.4-0.9l0.6-1.5l-0.2-0.7L87.4,104.2L87.4,104.2z M84.1,96.2l-1.7,3.8l-0.2,0.7l0.8,1.1l1.3,0.5l0.8,0.4l1.5,0.8l0.2,0.1v-0.2l2-0.6h0.4l1.2-0.1l1.1-0.5l1.1-1.8l-0.9-2l-1-1.4l-1.3-1.1v-0.1l0,0l-0.3-0.3l0.1,0.2l-0.1,0.1L89,95.7v0.1h-0.1l-0.2,0.1V96l0.2,0.1l-0.1,0.1h0.3l1.2,2.4l0.8,1.9l-0.4,0.7l-0.4,0.1l-1.2,0.1l-0.1-0.2l-1.5,0.7l-0.7,0.5l-0.2-0.3l-0.8-0.6l-1.4-0.5l-0.7-0.1l-0.1,0.2l-0.2-0.2l0.3-0.4l1.5-3l0.8-5.4l-0.7-0.6l-0.5-0.1v-0.1l-0.1,0.2l-0.5,0.3L84.1,96.2z M109.8,98.4l2.2-1.6l-2.3,1.4L109.8,98.4z M102.7,110.3l1-1.1l1.8-4.8l-2.3,3.7L102.7,110.3z M112,86.8l-0.2,0.3l-1-1.2l-2.9,2l1.2-1.3l-0.8-2l-1.2-6.5l-1.7-11.5l-1.5-1l-0.6-2.2l-1.6-1.3l0.4-0.5l-1.4-1.3l-5.1-0.6v0.1l-0.5-0.7l-1,0.4L93.8,59l-1.1,0.9l0.6-0.9l0.4-0.1l-0.3-0.5l0.1-0.5l-0.3,0.4l-0.8-0.4l0.2-0.9l-1.7-1.1l-0.2,0.5l-2.3,1.4l0.1,2.5l-0.8-1l-1.2,1.2l1-2.2l-2.1-0.2h-0.1l-0.7,2.1l-1.8-0.3l-0.1-0.7l-0.1,0.5l-0.9,0.2l-0.5-0.2l-2.1-0.3v1.5l-1.3-0.4l-1.2-1.7l-0.7,0.4l-2.4,1.2l0.7,1.9l-0.4,0.6l-1.1-0.7l0.6,1.6l-1,0.6l-1.7,0.4l1.6-0.1l0.8,0.6V66l-1.3,1L71,69.7l-1.5,6.1l-0.6,4.3l1,8.1l-0.4,0.5l-3.6,0.5l-0.1,2.3l2.3,2.7l0.8,4.1v2.8l2.6-0.5l1.1,0.4l2.8,9.7l1.7,1.7l-0.8,0.2l-0.7,1.5l-0.9,0.2l-0.1,1.4l-7.1,6.4l-4.3,6.7l-2.6,4.8l-1.7,6.2l-1.7,3.6l-2.7,4.5l-0.5,2.2l-0.1,0.9l0.7,1.8l-1.2,4.5l1.8-0.6l3.2-4l1-0.8l1.4,0.5l1.7,1.8l1.3-0.3l1.7-0.4l-1.3-5l-0.9-4.5l2.7-4l5.4-8.8l1.8-1.4l-0.7,5.5l1.5,11.3l0.1,10.6l1.2,1l3.5-0.2l1.4,11.1l1.2,7.5l0.7,4.9l2.8,0.1l2.5,0.4l3.6-1l-0.8-12.6l-1.4-9.8l5.4-0.4l1.1,9.5l-0.6,10.1l0.8,0.4l8-1l0.1-0.1l-0.3-11V156l1.6-1.5l0.9-9.6l-1.2-17.3l5.6,5l3.8,11.1l-0.5,4.6l0.8,0.5l-0.3,0.5l1.4,1.4l3.1-1l1.9-2.8l-3.2-14.8l-7.6-12.5l-4.9-5.9L102,113h-1.1l1.2-0.8l0.5-2.1l-1.5,2l-1.6,1.1l0,0v0.1l-0.5,0.4l-1.5,1.1H95l-4.2,2.4l-1.2-0.4l-7.8-0.7l-1.8-1.2l-1.2-1.5l-2.3-4.6l-4.2-8.4l-1.1-5.7l0.9-1.4l-1-0.6v-3l0.7-0.9l0.9-8.1l3.3-6l8.3-4.1l3.8-0.6l0.5,0.7l1.1-0.7l2.9,1.1l9.1,4.6l1.6,6.3l-0.9,4.2l1.3,2.7l2,4.4l-0.8,3.5l1.4,4.2l-1.3,3.4l3.2-5.3l0.2-0.5l0.8-0.5l-1.3-1.6l-0.9,1.2l-0.4-1.1l-0.6-4.5l0.4-0.5v-1l2.2,0.2l1.7-2.2v-0.1v-0.6v1.5l1.2,0.7l-0.1,2.8h1.5h-0.2l0.5,0.1l-1,3.2l-0.7,0.5l3.1-1.8l-0.6-2.4L112,86.8z M71.3,93.3L69,94.8l1.7,5l0,0L68,93.5l-0.2-2.1l0.7-1l1-1.3l0.1,0.8l0.1,1.1l1.4,1.7L71.3,93.3z M101.2,63.2h-0.5l0.6-0.6L101.2,63.2z M100.7,88.8l-6.4-1.9l-2.2,0.2l-0.3,0.1l1.6-1.3l1.7-0.7l2.4,0.4l0.6,0.3l0.6,0.4l0.6-0.2l0.3-0.3l-0.1-0.4l-4.3-1.9l-1.3,0.2L92,84.8l-1.5,1.8l0.2,0.5l-0.5,0.8l-1.3,1l-0.7,2.6l2.2,4l5.1,0.9l3.4-0.7l2.6-4.4L100.7,88.8L100.7,88.8z M98.4,94.1l-3.3,1.1L91.4,94l-2-2.7l0.6-1l4.5-2.4l3.8,0.9l1.8,2.4H100h0.1h0.1L98.4,94.1z M97.3,90.3l-2.7-0.2l-1.8,0.3l-0.6,0.4l-0.5,0.7l0.1,0.2l0.8,1.1l1.3,0.3l2.7-0.6l0.2-0.4l-0.3-0.3h0.1l0.5-0.2l0.4-0.2l0.1-0.6v-0.1L97.3,90.3z M84.2,91.6l0.2-0.1L84.2,91.6L84.2,91.6l-1-3.4l-3.4-1.1l-1.5-0.2l-3.4,0.7L73,90.7l0.1,0.8l1.6,3.9l4,1l3.7-1.2L84.2,91.6z M78.3,95.1l-3.9-3.7l0.8-2.5l0.9-0.1l0.4-0.4h0.2l2.3,0.1l2.6,0.5l1.2,1.9l-0.1,0.3L81.6,94L78.3,95.1z M95.2,106.8l0.3-0.1h0.1h0.1l0,0L95.2,106.8L95.2,106.8l0.2-0.1L95.2,106.8l0.2-0.1l-0.4-0.5h-0.1l-7.3,1.9v-0.4v0.5l-6.4-1.8l-1.6,0.1v0.5l-0.4,0.3l0.8,0.5l0.8-0.1l1,0.2l0.6-0.2l4.2,1.5l0.4,0.1l4.6-0.4l2.2-1l0.9-0.1l0.6-0.6L95.2,106.8l0.4-0.1L95.2,106.8z M81.7,91.6L81.7,91.6l-0.8-1.2l-1.7-0.2l-2,0.3l-0.8,0.3L76,91.6v0.1l0.5,0.4l0,0l0.3-0.1l0.1,0.1l-0.1,0.1v0.1l0,0l-0.1,0.2h0.1l0.1,0.2l0,0l0.1,0.1h0.1l0,0l0,0l2.6,0.7l1.4-0.4l0.8-1.3L81.7,91.6h0.2H81.7z M80,91.9l-0.5-0.2L80,91.9l0.3-0.1L80,91.9z"/>
</g>
<g id="label">
<path fill="#666666" d="M41.474,68h2.637v-5.229h5.062v-2.127H44.11v-3.305h5.695v-2.136h-8.332V68z M51.3,68h2.549V54.5H51.3V68zM61.249,58.49l-1.758,5.915l-1.767-5.915h-2.733l3.331,9.536l-0.299,0.782c-0.135,0.34-0.321,0.583-0.558,0.729s-0.596,0.22-1.077,0.22l-0.387-0.009v1.925c0.381,0.111,0.756,0.167,1.125,0.167c1.307,0,2.244-0.621,2.812-1.863l0.211-0.501l3.823-10.986H61.249z"/>
<path fill="#666666" d="M180.534,177.417c0.574-0.223,1.022-0.572,1.345-1.05s0.483-1.03,0.483-1.657c0-1.148-0.401-2.02-1.204-2.614s-1.98-0.893-3.533-0.893h-4.482V184h4.975c1.453-0.012,2.572-0.334,3.357-0.967s1.178-1.564,1.178-2.795c0-0.721-0.189-1.33-0.567-1.828S181.19,177.581,180.534,177.417z M175.779,173.339h1.846c0.727,0,1.258,0.128,1.595,0.382c0.337,0.256,0.506,0.673,0.506,1.253c0,1.037-0.665,1.567-1.995,1.591h-1.951V173.339zM179.492,181.438c-0.349,0.297-0.833,0.444-1.454,0.444h-2.259v-3.454h2.417c1.213,0.018,1.819,0.612,1.819,1.784C180.016,180.733,179.841,181.143,179.492,181.438z M192.162,177.681c0-1.066-0.345-1.894-1.033-2.483c-0.688-0.588-1.618-0.883-2.79-0.883c-0.773,0-1.471,0.134-2.092,0.4s-1.102,0.634-1.441,1.103s-0.51,0.979-0.51,1.529h2.54c0-0.357,0.121-0.639,0.364-0.844s0.579-0.308,1.007-0.308c0.486,0,0.842,0.132,1.067,0.396s0.339,0.615,0.339,1.055v0.545h-1.169c-1.412,0.006-2.492,0.278-3.239,0.817s-1.12,1.312-1.12,2.32c0,0.82,0.306,1.5,0.918,2.039s1.385,0.809,2.316,0.809c0.984,0,1.784-0.343,2.399-1.028c0.053,0.34,0.138,0.624,0.255,0.853h2.566v-0.149c-0.246-0.463-0.372-1.146-0.378-2.048V177.681zM189.613,181.311c-0.152,0.281-0.387,0.506-0.703,0.672c-0.316,0.168-0.662,0.251-1.037,0.251c-0.387,0-0.691-0.103-0.914-0.308s-0.334-0.466-0.334-0.782l0.009-0.149c0.082-0.879,0.759-1.318,2.03-1.318h0.949V181.311z M198.965,174.314c-0.955,0-1.726,0.343-2.312,1.028V170.5h-2.54V184h2.285l0.114-1.011c0.615,0.791,1.438,1.187,2.47,1.187c1.166,0,2.074-0.426,2.725-1.279c0.65-0.852,0.976-2.04,0.976-3.563v-0.141c0-1.547-0.33-2.747-0.989-3.599C201.034,174.74,200.125,174.314,198.965,174.314z M199.958,180.915c-0.258,0.809-0.797,1.213-1.617,1.213c-0.814,0-1.377-0.334-1.688-1.002v-3.753c0.305-0.662,0.861-0.993,1.67-0.993c0.604,0,1.058,0.222,1.362,0.663c0.305,0.443,0.457,1.145,0.457,2.105C200.143,179.939,200.081,180.528,199.958,180.915z M212.535,179.034c0-1.506-0.374-2.669-1.121-3.489s-1.771-1.23-3.071-1.23c-0.867,0-1.64,0.204-2.316,0.611s-1.199,0.987-1.568,1.74s-0.554,1.606-0.554,2.562v0.246c0,1.424,0.438,2.563,1.313,3.419s2.012,1.283,3.406,1.283c0.791,0,1.512-0.151,2.162-0.453c0.65-0.301,1.166-0.722,1.547-1.261l-1.248-1.397c-0.551,0.709-1.315,1.063-2.294,1.063c-0.633,0-1.156-0.188-1.569-0.562s-0.66-0.873-0.742-1.494h6.056V179.034z M210.039,178.34h-3.533c0.088-0.636,0.288-1.124,0.602-1.466c0.313-0.341,0.723-0.512,1.227-0.512c0.539,0,0.955,0.154,1.248,0.464c0.293,0.309,0.445,0.745,0.457,1.311V178.34z"/>
</g>
</svg>
